<?xml version="1.0" encoding="UTF-8" standalone="no"?>
<!DOCTYPE svg PUBLIC "-//W3C//DTD SVG 1.1//EN" "http://www.w3.org/Graphics/SVG/1.1/DTD/svg11.dtd">
<svg width="100%" height="100%" viewBox="0 0 650 584" version="1.1" xmlns="http://www.w3.org/2000/svg" xmlns:xlink="http://www.w3.org/1999/xlink" xml:space="preserve" xmlns:serif="http://www.serif.com/" style="fill-rule:evenodd;clip-rule:evenodd;stroke-linejoin:round;stroke-miterlimit:2;">
    <g transform="matrix(1,0,0,1,0,-3832.27)">
        <path d="M560.281,3865.77L546.997,3870.71L617.349,4060.83L630.634,4055.89L560.281,3865.77Z" style="fill:rgb(40,73,104);fill-rule:nonzero;"/>
    </g>
    <g transform="matrix(1,0,0,1,0,-3832.27)">
        <path d="M110.379,4094.63L97.094,4099.57L167.122,4288.05L180.406,4283.11L110.379,4094.63Z" style="fill:rgb(40,73,104);fill-rule:nonzero;"/>
    </g>
    <g transform="matrix(1,0,0,1,0,-3832.27)">
        <path d="M340.458,3988.74L319.645,3988.74L294.667,4325.27L330.051,4349.42L365.441,4325.27L340.458,3988.74Z" style="fill:rgb(53,63,75);fill-rule:nonzero;"/>
    </g>
    <g transform="matrix(1,0,0,1,0,-3832.27)">
        <path d="M350.005,4362.02C350.005,4373.52 340.679,4382.83 329.186,4382.83C317.694,4382.83 308.374,4373.52 308.374,4362.02C308.374,4350.53 317.694,4341.21 329.186,4341.21C340.679,4341.21 350.005,4350.53 350.005,4362.02Z" style="fill:rgb(73,79,87);fill-rule:nonzero;"/>
    </g>
    <g transform="matrix(1,0,0,1,0,-3832.27)">
        <path d="M118.703,4066.88C119.658,4075.91 115.115,4085 106.525,4089.34C97.932,4093.68 87.916,4091.94 81.211,4085.81L67.093,4092.94C78.008,4106.45 97.219,4111.02 113.354,4102.87C125.66,4096.66 133.029,4084.6 133.904,4071.78L192.528,4042.18L334.645,3991.13L321.25,3964.61L118.703,4066.88Z" style="fill:rgb(251,187,31);fill-rule:nonzero;"/>
    </g>
    <g transform="matrix(1,0,0,1,0,-3832.27)">
        <path d="M531.733,3858.33C538.438,3864.47 548.45,3866.21 557.043,3861.87C565.637,3857.53 570.183,3848.44 569.22,3839.4L583.342,3832.27C587.736,3849.07 580.007,3867.25 563.873,3875.39C551.563,3881.61 537.497,3880.38 526.662,3873.47L468.037,3903.07L342.588,3987.13L329.193,3960.6L531.733,3858.33Z" style="fill:rgb(247,151,40);fill-rule:nonzero;"/>
    </g>
    <g transform="matrix(1,0,0,1,0,-3832.27)">
        <path d="M350.87,3984.99C350.87,3996.49 341.551,4005.81 330.051,4005.81C318.558,4005.81 309.239,3996.49 309.239,3984.99L309.239,3965.86C309.239,3954.37 318.558,3945.05 330.051,3945.05C341.551,3945.05 350.87,3954.37 350.87,3965.86L350.87,3984.99Z" style="fill:rgb(53,61,74);fill-rule:nonzero;"/>
    </g>
    <g transform="matrix(1,0,0,1,0,-3832.27)">
        <path d="M468.279,4395.21C465.2,4385.56 456.157,4378.55 445.481,4378.55L212.901,4378.55C202.222,4378.55 193.186,4385.56 190.1,4395.21L468.279,4395.21Z" style="fill:rgb(251,187,31);fill-rule:nonzero;"/>
    </g>
    <g transform="matrix(1,0,0,1,0,-3832.27)">
        <path d="M521.943,4416.02C516.602,4403.77 504.389,4395.21 490.178,4395.21L168.205,4395.21C153.986,4395.21 141.781,4403.77 136.433,4416.02L521.943,4416.02Z" style="fill:rgb(36,99,150);fill-rule:nonzero;"/>
    </g>
    <g transform="matrix(1,0,0,1,0,-3832.27)">
        <path d="M93.241,4084.4L19.356,4283.11L32.641,4288.05L106.525,4089.34L93.241,4084.4Z" style="fill:rgb(40,73,104);fill-rule:nonzero;"/>
    </g>
    <g transform="matrix(1,0,0,1,0,-3832.27)">
        <path d="M5.746,4280.34C23.189,4307.88 58.746,4326.78 99.886,4326.78C141.02,4326.78 176.577,4307.88 194.027,4280.34L5.746,4280.34Z" style="fill:rgb(244,170,28);fill-rule:nonzero;"/>
    </g>
    <g transform="matrix(1,0,0,1,0,-3832.27)">
        <rect x="0" y="4280.34" width="199.769" height="11.62" style="fill:rgb(251,187,31);fill-rule:nonzero;"/>
    </g>
    <g transform="matrix(1,0,0,1,0,-3832.27)">
        <path d="M543.468,3857.19L469.586,4055.89L482.871,4060.83L556.753,3862.13L543.468,3857.19Z" style="fill:rgb(40,73,104);fill-rule:nonzero;"/>
    </g>
    <g transform="matrix(1,0,0,1,0,-3832.27)">
        <path d="M455.977,4053.13C473.42,4080.67 508.977,4099.57 550.118,4099.57C591.25,4099.57 626.808,4080.67 644.257,4053.13L455.977,4053.13Z" style="fill:rgb(244,170,28);fill-rule:nonzero;"/>
    </g>
    <g transform="matrix(1,0,0,1,0,-3832.27)">
        <rect x="450.227" y="4053.13" width="199.773" height="11.63" style="fill:rgb(251,187,31);fill-rule:nonzero;"/>
    </g>
</svg>
